0
SECTION
2
HEADER
9
$ACADVER
1
AC1009
9
$INSBASE
10
0.000
20
0.000
30
0.000
9
$EXTMIN
10
7513938.660
20
4691208.600
9
$EXTMAX
10
7513938.660
20
4691208.600
0
ENDSEC
0
SECTION
2
TABLES
0
TABLE
2
LTYPE
70
1
0
LTYPE
2
continuous
70
64
3
Solid line
72
65
73
0
40
0.000
0
ENDTAB
0
TABLE
2
LAYER
70
1
0
LAYER
2
Parcela
70
64
62
7
6
continuous
0
ENDTAB
0
TABLE
2
STYLE
70
1
0
STYLE
2
STANDARD
70
0
40
0
41
40
50
50
71
0
42
1
3
ARIAL.TTF
4

0
ENDTAB
0
TABLE
2
VIEW
70
0
0
ENDTAB
0
ENDSEC
0
SECTION
2
BLOCKS
0
ENDSEC
0
SECTION
2
ENTITIES
0
POLYLINE
66
1
8
Parcela Baze
70
0
10
7511585.976
20
4691141.278
0
VERTEX
8
Parcela Baze
10
7511585.976
20
4691141.278
0
VERTEX
8
Parcela Baze
10
7511648.239
20
4691223.742
0
VERTEX
8
Parcela Baze
10
7511670.459
20
4691212.312
0
VERTEX
8
Parcela Baze
10
7511685.528
20
4691204.671
0
VERTEX
8
Parcela Baze
10
7511705.408
20
4691197.531
0
VERTEX
8
Parcela Baze
10
7511707.138
20
4691190.231
0
VERTEX
8
Parcela Baze
10
7511702.557
20
4691166.302
0
VERTEX
8
Parcela Baze
10
7511710.295
20
4691106.105
0
VERTEX
8
Parcela Baze
10
7511594.856
20
4691138.318
0
VERTEX
8
Parcela Baze
10
7511585.976
20
4691141.278
0
SEQEND
0
TEXT
8
Nr Parceles Baze
10
7511649.257
20
4691168.514
40
0.800000
1
00002-0
0
TEXT
8
Nr e Pikave Gjeodezike te Parceles Baze
10
7511670.459
20
4691212.312
40
0.800000
1
2239-6836
0
POINT
8
Pikat
10
7511670.459
20
4691212.312
0
TEXT
8
Nr e Pikave Gjeodezike te Parceles Baze
10
7511705.408
20
4691197.531
40
0.800000
1
2239-6838
0
POINT
8
Pikat
10
7511705.408
20
4691197.531
0
TEXT
8
Nr e Pikave Gjeodezike te Parceles Baze
10
7511702.557
20
4691166.302
40
0.800000
1
2292-42577
0
POINT
8
Pikat
10
7511702.557
20
4691166.302
0
TEXT
8
Nr e Pikave Gjeodezike te Parceles Baze
10
7511685.528
20
4691204.671
40
0.800000
1
2239-6837
0
POINT
8
Pikat
10
7511685.528
20
4691204.671
0
TEXT
8
Nr e Pikave Gjeodezike te Parceles Baze
10
7511707.138
20
4691190.231
40
0.800000
1
2239-6839
0
POINT
8
Pikat
10
7511707.138
20
4691190.231
0
TEXT
8
Nr e Pikave Gjeodezike te Parceles Baze
10
7511710.295
20
4691106.105
40
0.800000
1
2292-42576
0
POINT
8
Pikat
10
7511710.295
20
4691106.105
0
TEXT
8
Nr e Pikave Gjeodezike te Parceles Baze
10
7511707.138
20
4691190.231
40
0.800000
1
2292-42578
0
POINT
8
Pikat
10
7511707.138
20
4691190.231
0
TEXT
8
Nr e Pikave Gjeodezike te Parceles Baze
10
7511702.557
20
4691166.302
40
0.800000
1
2239-6840
0
POINT
8
Pikat
10
7511702.557
20
4691166.302
0
TEXT
8
Nr e Pikave Gjeodezike te Parceles Baze
10
7511670.459
20
4691212.312
40
0.800000
1
2292-42581
0
POINT
8
Pikat
10
7511670.459
20
4691212.312
0
TEXT
8
Nr e Pikave Gjeodezike te Parceles Baze
10
7511648.239
20
4691223.742
40
0.800000
1
2239-6835
0
POINT
8
Pikat
10
7511648.239
20
4691223.742
0
TEXT
8
Nr e Pikave Gjeodezike te Parceles Baze
10
7511594.856
20
4691138.318
40
0.800000
1
2239-6842
0
POINT
8
Pikat
10
7511594.856
20
4691138.318
0
TEXT
8
Nr e Pikave Gjeodezike te Parceles Baze
10
7511705.408
20
4691197.531
40
0.800000
1
2292-42579
0
POINT
8
Pikat
10
7511705.408
20
4691197.531
0
TEXT
8
Nr e Pikave Gjeodezike te Parceles Baze
10
7511585.976
20
4691141.278
40
0.800000
1
2239-6834
0
POINT
8
Pikat
10
7511585.976
20
4691141.278
0
TEXT
8
Nr e Pikave Gjeodezike te Parceles Baze
10
7511710.295
20
4691106.105
40
0.800000
1
2239-6841
0
POINT
8
Pikat
10
7511710.295
20
4691106.105
0
TEXT
8
Nr e Pikave Gjeodezike te Parceles Baze
10
7511685.528
20
4691204.671
40
0.800000
1
2292-42580
0
POINT
8
Pikat
10
7511685.528
20
4691204.671
0
TEXT
8
Nr e Pikave Gjeodezike te Parceles Baze
10
7511648.239
20
4691223.742
40
0.800000
1
2292-42582
0
POINT
8
Pikat
10
7511648.239
20
4691223.742
0
ENDSEC
0
EOF
