0
SECTION
2
HEADER
9
$ACADVER
1
AC1009
9
$INSBASE
10
0.000
20
0.000
30
0.000
9
$EXTMIN
10
7513938.660
20
4691208.600
9
$EXTMAX
10
7513938.660
20
4691208.600
0
ENDSEC
0
SECTION
2
TABLES
0
TABLE
2
LTYPE
70
1
0
LTYPE
2
continuous
70
64
3
Solid line
72
65
73
0
40
0.000
0
ENDTAB
0
TABLE
2
LAYER
70
1
0
LAYER
2
Parcela
70
64
62
7
6
continuous
0
ENDTAB
0
TABLE
2
STYLE
70
1
0
STYLE
2
ANNOTATIVE
70
0
40
0
41
40
50
50
71
0
42
1
3
ARIAL.TTF
4

0
ENDTAB
0
TABLE
2
VIEW
70
0
0
ENDTAB
0
ENDSEC
0
SECTION
2
BLOCKS
0
ENDSEC
0
SECTION
2
ENTITIES
0
POLYLINE
66
1
8
Parcela Baze
70
0
10
7511561.645
20
4691100.853
0
VERTEX
8
Parcela Baze
10
7511561.645
20
4691100.853
0
VERTEX
8
Parcela Baze
10
7511572.205
20
4691120.930
0
VERTEX
8
Parcela Baze
10
7511585.976
20
4691141.278
0
VERTEX
8
Parcela Baze
10
7511590.330
20
4691147.045
0
VERTEX
8
Parcela Baze
10
7511709.326
20
4691113.640
0
VERTEX
8
Parcela Baze
10
7511710.295
20
4691106.105
0
VERTEX
8
Parcela Baze
10
7511712.934
20
4691083.506
0
VERTEX
8
Parcela Baze
10
7511713.944
20
4691077.116
0
VERTEX
8
Parcela Baze
10
7511722.702
20
4691055.125
0
VERTEX
8
Parcela Baze
10
7511696.010
20
4691062.540
0
VERTEX
8
Parcela Baze
10
7511690.503
20
4691064.067
0
VERTEX
8
Parcela Baze
10
7511682.680
20
4691066.290
0
VERTEX
8
Parcela Baze
10
7511645.160
20
4691076.970
0
VERTEX
8
Parcela Baze
10
7511631.890
20
4691080.750
0
VERTEX
8
Parcela Baze
10
7511586.074
20
4691093.790
0
VERTEX
8
Parcela Baze
10
7511561.645
20
4691100.853
0
SEQEND
0
TEXT
8
Nr Parceles Baze
10
7511644.431
20
4691103.194
40
0.800000
1
1311-0
0
TEXT
8
Nr e Pikave Gjeodezike te Parceles Baze
10
7511585.976
20
4691141.278
40
0.800000
1
23637
0
POINT
8
Pikat
10
7511585.976
20
4691141.278
0
TEXT
8
Nr e Pikave Gjeodezike te Parceles Baze
10
7511572.205
20
4691120.930
40
0.800000
1
23638
0
POINT
8
Pikat
10
7511572.205
20
4691120.930
0
TEXT
8
Nr e Pikave Gjeodezike te Parceles Baze
10
7511561.645
20
4691100.853
40
0.800000
1
23639
0
POINT
8
Pikat
10
7511561.645
20
4691100.853
0
TEXT
8
Nr e Pikave Gjeodezike te Parceles Baze
10
7511586.074
20
4691093.790
40
0.800000
1
23658
0
POINT
8
Pikat
10
7511586.074
20
4691093.790
0
TEXT
8
Nr e Pikave Gjeodezike te Parceles Baze
10
7511631.890
20
4691080.750
40
0.800000
1
23659
0
POINT
8
Pikat
10
7511631.890
20
4691080.750
0
TEXT
8
Nr e Pikave Gjeodezike te Parceles Baze
10
7511645.160
20
4691076.970
40
0.800000
1
23660
0
POINT
8
Pikat
10
7511645.160
20
4691076.970
0
TEXT
8
Nr e Pikave Gjeodezike te Parceles Baze
10
7511712.934
20
4691083.506
40
0.800000
1
23662
0
POINT
8
Pikat
10
7511712.934
20
4691083.506
0
TEXT
8
Nr e Pikave Gjeodezike te Parceles Baze
10
7511713.944
20
4691077.116
40
0.800000
1
23663
0
POINT
8
Pikat
10
7511713.944
20
4691077.116
0
TEXT
8
Nr e Pikave Gjeodezike te Parceles Baze
10
7511722.702
20
4691055.125
40
0.800000
1
23664
0
POINT
8
Pikat
10
7511722.702
20
4691055.125
0
TEXT
8
Nr e Pikave Gjeodezike te Parceles Baze
10
7511696.010
20
4691062.540
40
0.800000
1
23665
0
POINT
8
Pikat
10
7511696.010
20
4691062.540
0
TEXT
8
Nr e Pikave Gjeodezike te Parceles Baze
10
7511690.503
20
4691064.067
40
0.800000
1
23666
0
POINT
8
Pikat
10
7511690.503
20
4691064.067
0
TEXT
8
Nr e Pikave Gjeodezike te Parceles Baze
10
7511682.680
20
4691066.290
40
0.800000
1
23667
0
POINT
8
Pikat
10
7511682.680
20
4691066.290
0
TEXT
8
Nr e Pikave Gjeodezike te Parceles Baze
10
7511710.295
20
4691106.105
40
0.800000
1
23669
0
POINT
8
Pikat
10
7511710.295
20
4691106.105
0
TEXT
8
Nr e Pikave Gjeodezike te Parceles Baze
10
7511722.702
20
4691055.125
40
0.800000
1
2292-164203
0
POINT
8
Pikat
10
7511722.702
20
4691055.125
0
TEXT
8
Nr e Pikave Gjeodezike te Parceles Baze
10
7511713.944
20
4691077.116
40
0.800000
1
2292-164204
0
POINT
8
Pikat
10
7511713.944
20
4691077.116
0
TEXT
8
Nr e Pikave Gjeodezike te Parceles Baze
10
7511712.934
20
4691083.506
40
0.800000
1
2292-164205
0
POINT
8
Pikat
10
7511712.934
20
4691083.506
0
TEXT
8
Nr e Pikave Gjeodezike te Parceles Baze
10
7511710.295
20
4691106.105
40
0.800000
1
2292-164206
0
POINT
8
Pikat
10
7511710.295
20
4691106.105
0
TEXT
8
Nr e Pikave Gjeodezike te Parceles Baze
10
7511709.326
20
4691113.640
40
0.800000
1
23880
0
POINT
8
Pikat
10
7511709.326
20
4691113.640
0
TEXT
8
Nr e Pikave Gjeodezike te Parceles Baze
10
7511709.326
20
4691113.640
40
0.800000
1
2292-183012
0
POINT
8
Pikat
10
7511709.326
20
4691113.640
0
TEXT
8
Nr e Pikave Gjeodezike te Parceles Baze
10
7511590.330
20
4691147.045
40
0.800000
1
23882
0
POINT
8
Pikat
10
7511590.330
20
4691147.045
0
ENDSEC
0
EOF
